<svg width="136" height="56" viewBox="0 0 136 56" fill="none" xmlns="http://www.w3.org/2000/svg">
<path fill-rule="evenodd" clip-rule="evenodd" d="M30.8734 10.2011C30.7174 9.93188 30.3268 9.93323 30.1726 10.2036L10.0533 45.4585C9.90033 45.7267 10.0947 46.0596 10.4044 46.0596H50.9603C51.2712 46.0596 51.4655 45.7244 51.3101 45.4562L30.8734 10.2011ZM26.4923 33.0639L26.4912 33.0623L26.4924 33.0639L33.7032 31.0996L31.7541 38.2325L31.7535 38.2336L26.4924 33.0639" fill="#F3F3F3"/>
<path d="M10.4044 46.0593H18.5539L26.0485 17.4297L10.0533 45.4582C9.90033 45.7264 10.0947 46.0593 10.4044 46.0593Z" fill="#F3F3F3"/>
<path d="M47.3089 38.5547L18.5537 46.0604H50.9601C51.2711 46.0604 51.4654 45.725 51.3099 45.4569L47.3089 38.5547Z" fill="#F3F3F3"/>
<path d="M42.897 34.1699L47.3092 38.554L30.8737 10.2012C30.7177 9.93197 30.3272 9.93313 30.173 10.2035L26.0488 17.4301L42.879 34.152L42.897 34.1699Z" fill="#F3F3F3"/>
<path d="M18.5537 46.0579L24.4789 44.5114L24.4456 23.5508L18.5537 46.0579Z" fill="#F3F3F3"/>
<path d="M24.4453 23.5521L42.8961 34.1694L26.0481 17.4297L24.4453 23.5521Z" fill="#F3F3F3"/>
<path d="M24.4785 44.5152L47.3086 38.556H47.3085L42.8961 34.1719L24.4785 44.5152Z" fill="#F3F3F3"/>
<path d="M24.4793 44.514L28.4312 42.2947L24.4531 28L24.4793 44.514Z" fill="#F3F3F3"/>
<path d="M42.8973 34.1732L39.0121 31.9375L28.4316 42.2973L42.8973 34.1732Z" fill="#F3F3F3"/>
<path d="M24.4534 28.0013L39.0118 31.9363L24.4463 23.5547L24.4534 28.0013Z" fill="#F3F3F3"/>
<path d="M33.7037 31.1008L35.9391 31.1045L24.4531 28L25.3109 31.082L33.6834 31.1008H33.7037Z" fill="#F3F3F3"/>
<path d="M26.4705 33.0259L25.3115 31.082L28.4319 42.2947L30.6421 40.1307L26.4935 33.0651L26.4705 33.0259Z" fill="#F3F3F3"/>
<path d="M35.9392 31.1055L30.6416 40.1318L39.0117 31.9359L35.9392 31.1055Z" fill="#F3F3F3"/>
<path d="M33.7025 31.0969L25.3096 31.0781L26.4916 33.0613L33.7025 31.0969Z" fill="#F3F3F3"/>
<path d="M31.7525 38.2322L26.4912 33.0625L30.6398 40.128L31.7525 38.2322Z" fill="#F3F3F3"/>
<path d="M35.9379 31.1014L33.7025 31.0977L31.7529 38.2328L35.9379 31.1014Z" fill="#F3F3F3"/>
<path d="M10.4044 46.0593H18.5539L26.0485 17.4297L10.0533 45.4582C9.90033 45.7264 10.0947 46.0593 10.4044 46.0593Z" fill="url(#paint0_linear_7430_54232)"/>
<path d="M47.3089 38.5547L18.5537 46.0604H50.9601C51.2711 46.0604 51.4654 45.7251 51.3099 45.4569L47.3089 38.5547Z" fill="url(#paint1_linear_7430_54232)"/>
<path d="M42.897 34.1699L47.3092 38.5539L30.8737 10.2011C30.7177 9.93191 30.3272 9.93326 30.173 10.2034L26.0488 17.43L42.879 34.1519L42.897 34.1699Z" fill="url(#paint2_linear_7430_54232)"/>
<path d="M18.5537 46.0579L24.4789 44.5114L24.4456 23.5508L18.5537 46.0579Z" fill="url(#paint3_linear_7430_54232)"/>
<path d="M24.4453 23.5521L42.8961 34.1695L26.0481 17.4297L24.4453 23.5521Z" fill="url(#paint4_linear_7430_54232)"/>
<path d="M24.4785 44.5151L47.3086 38.556H47.3085L42.8961 34.1719L24.4785 44.5151Z" fill="url(#paint5_linear_7430_54232)"/>
<path d="M24.4793 44.514L28.4312 42.2948L24.4531 28L24.4793 44.514Z" fill="url(#paint6_linear_7430_54232)"/>
<path d="M42.8973 34.1732L39.0121 31.9375L28.4316 42.2973L42.8973 34.1732Z" fill="url(#paint7_linear_7430_54232)"/>
<path d="M24.4534 28.0013L39.0118 31.9363L24.4463 23.5547L24.4534 28.0013Z" fill="url(#paint8_linear_7430_54232)"/>
<path d="M33.7037 31.1008L35.9391 31.1045L24.4531 28L25.3109 31.0821L33.6834 31.1008H33.7037Z" fill="url(#paint9_linear_7430_54232)"/>
<path d="M26.4705 33.0259L25.3115 31.082L28.4319 42.2947L30.6421 40.1307L26.4935 33.0651L26.4705 33.0259Z" fill="url(#paint10_linear_7430_54232)"/>
<path d="M35.9392 31.1055L30.6416 40.1316L39.0117 31.9358L35.9392 31.1055Z" fill="url(#paint11_linear_7430_54232)"/>
<path d="M33.7025 31.0969L25.3096 31.0781L26.4916 33.0613L33.7025 31.0969Z" fill="url(#paint12_linear_7430_54232)"/>
<path d="M31.7525 38.2321L26.4912 33.0625L30.6398 40.128L31.7525 38.2321Z" fill="url(#paint13_linear_7430_54232)"/>
<path d="M35.9379 31.1014L33.7025 31.0977L31.7529 38.2328L35.9379 31.1014Z" fill="url(#paint14_linear_7430_54232)"/>
<path d="M74.7999 31.3096L69.8002 20.0658L64.8315 31.3096L63.8882 33.4394L61.7941 38.1307C61.4867 38.819 60.8014 39.2626 60.0449 39.2626H58.6592L68.3851 17.7169C68.5109 17.4248 68.6996 17.2054 68.9509 17.0591C69.2027 16.9132 69.4749 16.8398 69.7686 16.8398C70.0831 16.8398 70.3663 16.9181 70.6177 17.0748C70.8693 17.2314 71.0579 17.4458 71.1837 17.7169L80.9133 39.2649L79.5528 39.2638C78.7928 39.2632 78.1052 38.8149 77.8007 38.1216L75.7434 33.4394L74.7999 31.3096Z" fill="#F3F3F3"/>
<path fill-rule="evenodd" clip-rule="evenodd" d="M84.2656 39.2621V18.2801C84.2656 17.9043 84.386 17.6019 84.6273 17.3719C84.8682 17.1423 85.1879 17.0273 85.5864 17.0273H93.0391C95.3661 17.0273 97.1744 17.5912 98.4635 18.7186C99.7528 19.8462 100.397 21.4434 100.397 23.5107C100.397 25.5778 99.7476 27.1859 98.4479 28.3339C97.1477 29.4825 95.345 30.0564 93.0391 30.0564H86.8443V37.3557C86.8443 38.4086 85.9872 39.2621 84.9298 39.2621L84.2656 39.2621ZM92.787 27.9257C96.1622 27.9257 97.8499 26.4537 97.8499 23.5098C97.8499 20.6076 96.1622 19.1562 92.787 19.1562H86.8438V27.9257H92.787Z" fill="#F3F3F3"/>
<path d="M104.862 37.3557V17.0273H105.527C106.584 17.0273 107.441 17.8809 107.441 18.934V39.2622H106.777C105.719 39.2622 104.862 38.4086 104.862 37.3557L104.862 37.3557Z" fill="#F3F3F3"/>
<path d="M113.887 35.0327C114.851 35.8053 115.794 36.3691 116.717 36.7239C117.639 37.0792 118.635 37.2565 119.704 37.2565C121.256 37.2565 122.435 36.9016 123.242 36.1914C124.049 35.4819 124.453 34.4586 124.453 33.1221C124.453 30.4288 122.755 29.0819 119.359 29.0819H117.692C117.356 29.0819 117.089 28.9721 116.89 28.753C116.691 28.5338 116.591 28.2784 116.591 27.9857C116.591 27.6936 116.691 27.4429 116.89 27.2341C117.089 27.0255 117.356 26.9208 117.692 26.9208H118.855C120.491 26.9208 121.748 26.5605 122.629 25.8401C123.509 25.1199 123.95 24.0816 123.95 22.7239C123.95 21.5338 123.593 20.6206 122.881 19.9834C122.168 19.3467 121.161 19.0282 119.862 19.0282C118.876 19.0282 117.922 19.2112 117 19.5763C116.077 19.9418 115.155 20.5002 114.233 21.2518L114.031 20.9526C113.414 20.0393 113.692 18.7849 114.654 18.2422C115.114 17.9828 115.608 17.7539 116.135 17.556C117.362 17.0971 118.625 16.8672 119.925 16.8672C121.937 16.8672 123.536 17.3737 124.72 18.3862C125.904 19.3992 126.497 20.7616 126.497 22.4734C126.497 23.7471 126.177 24.859 125.538 25.809C124.898 26.7592 124.013 27.4429 122.881 27.8604C124.222 28.2363 125.244 28.8838 125.947 29.8022C126.649 30.7213 127 31.859 127 33.2162C127 35.1374 126.35 36.6509 125.05 37.7576C123.75 38.8644 121.979 39.4175 119.736 39.4175C118.373 39.4175 117.068 39.188 115.821 38.7284C115.298 38.5362 114.81 38.3146 114.356 38.0636C113.371 37.52 113.06 36.2578 113.688 35.3275L113.887 35.0327Z" fill="#F3F3F3"/>
<rect x="63.2803" y="31.375" width="13.013" height="2.12765" fill="#F3F3F3"/>
<defs>
<linearGradient id="paint0_linear_7430_54232" x1="27.2631" y1="43.3633" x2="18.6568" y2="17.7368" gradientUnits="userSpaceOnUse">
<stop stop-color="#C3C4C3"/>
<stop offset="0.0948988" stop-color="#D7D8D7"/>
<stop offset="0.212581" stop-color="#E9E9E9"/>
<stop offset="0.355404" stop-color="#F5F5F5"/>
<stop offset="0.547581" stop-color="#FCFCFC"/>
<stop offset="1" stop-color="white"/>
</linearGradient>
<linearGradient id="paint1_linear_7430_54232" x1="11.1433" y1="34.9912" x2="9.86045" y2="52.7307" gradientUnits="userSpaceOnUse">
<stop stop-color="#C3C4C3"/>
<stop offset="0.0948988" stop-color="#D7D8D7"/>
<stop offset="0.212581" stop-color="#E9E9E9"/>
<stop offset="0.355404" stop-color="#F5F5F5"/>
<stop offset="0.547581" stop-color="#FCFCFC"/>
<stop offset="1" stop-color="white"/>
</linearGradient>
<linearGradient id="paint2_linear_7430_54232" x1="21.4002" y1="35.5733" x2="48.1981" y2="42.1611" gradientUnits="userSpaceOnUse">
<stop stop-color="#C3C4C3"/>
<stop offset="0.0948988" stop-color="#D7D8D7"/>
<stop offset="0.212581" stop-color="#E9E9E9"/>
<stop offset="0.355404" stop-color="#F5F5F5"/>
<stop offset="0.547581" stop-color="#FCFCFC"/>
<stop offset="1" stop-color="white"/>
</linearGradient>
<linearGradient id="paint3_linear_7430_54232" x1="25.4919" y1="41.2904" x2="13.9612" y2="33.7177" gradientUnits="userSpaceOnUse">
<stop stop-color="#B7B8B8"/>
<stop offset="0.114546" stop-color="#C9CACA"/>
<stop offset="0.303782" stop-color="#E0E1E1"/>
<stop offset="0.50531" stop-color="#F1F1F1"/>
<stop offset="0.725645" stop-color="#FBFBFB"/>
<stop offset="1" stop-color="white"/>
</linearGradient>
<linearGradient id="paint4_linear_7430_54232" x1="19.3568" y1="30.5088" x2="38.8548" y2="41.0128" gradientUnits="userSpaceOnUse">
<stop stop-color="#B7B8B8"/>
<stop offset="0.114546" stop-color="#C9CACA"/>
<stop offset="0.303782" stop-color="#E0E1E1"/>
<stop offset="0.50531" stop-color="#F1F1F1"/>
<stop offset="0.725645" stop-color="#FBFBFB"/>
<stop offset="1" stop-color="white"/>
</linearGradient>
<linearGradient id="paint5_linear_7430_54232" x1="30.5821" y1="31.0704" x2="25.8783" y2="47.6532" gradientUnits="userSpaceOnUse">
<stop stop-color="#B7B8B8"/>
<stop offset="0.114546" stop-color="#C9CACA"/>
<stop offset="0.303782" stop-color="#E0E1E1"/>
<stop offset="0.50531" stop-color="#F1F1F1"/>
<stop offset="0.725645" stop-color="#FBFBFB"/>
<stop offset="1" stop-color="white"/>
</linearGradient>
<linearGradient id="paint6_linear_7430_54232" x1="28.5026" y1="34.7674" x2="21.3221" y2="33.3201" gradientUnits="userSpaceOnUse">
<stop stop-color="#B7B8B8"/>
<stop offset="0.211828" stop-color="#CDCECE"/>
<stop offset="0.518815" stop-color="#E8E9E9"/>
<stop offset="0.791553" stop-color="#F9F9F9"/>
<stop offset="1" stop-color="white"/>
</linearGradient>
<linearGradient id="paint7_linear_7430_54232" x1="33.2314" y1="28.5746" x2="26.4929" y2="42.125" gradientUnits="userSpaceOnUse">
<stop stop-color="#B7B8B8"/>
<stop offset="0.211828" stop-color="#CDCECE"/>
<stop offset="0.518815" stop-color="#E8E9E9"/>
<stop offset="0.791553" stop-color="#F9F9F9"/>
<stop offset="1" stop-color="white"/>
</linearGradient>
<linearGradient id="paint8_linear_7430_54232" x1="20.4997" y1="30.3114" x2="32.4109" y2="39.2441" gradientUnits="userSpaceOnUse">
<stop stop-color="#B7B8B8"/>
<stop offset="0.211828" stop-color="#CDCECE"/>
<stop offset="0.518815" stop-color="#E8E9E9"/>
<stop offset="0.791553" stop-color="#F9F9F9"/>
<stop offset="1" stop-color="white"/>
</linearGradient>
<linearGradient id="paint9_linear_7430_54232" x1="22.6441" y1="31.0738" x2="28.5198" y2="37.378" gradientUnits="userSpaceOnUse">
<stop stop-color="#ABACAC"/>
<stop offset="0.187095" stop-color="#BCBDBD"/>
<stop offset="0.729612" stop-color="#ECECEC"/>
<stop offset="1" stop-color="white"/>
</linearGradient>
<linearGradient id="paint10_linear_7430_54232" x1="32.1968" y1="36.3573" x2="24.1334" y2="32.6358" gradientUnits="userSpaceOnUse">
<stop stop-color="#ABACAC"/>
<stop offset="0.187095" stop-color="#BCBDBD"/>
<stop offset="0.729612" stop-color="#ECECEC"/>
<stop offset="1" stop-color="white"/>
</linearGradient>
<linearGradient id="paint11_linear_7430_54232" x1="33.3589" y1="27.6286" x2="26.2801" y2="36.617" gradientUnits="userSpaceOnUse">
<stop stop-color="#ABACAC"/>
<stop offset="0.187095" stop-color="#BCBDBD"/>
<stop offset="0.729612" stop-color="#ECECEC"/>
<stop offset="1" stop-color="white"/>
</linearGradient>
<linearGradient id="paint12_linear_7430_54232" x1="31.6246" y1="33.3267" x2="32.1882" y2="29.5682" gradientUnits="userSpaceOnUse">
<stop stop-color="#9FA0A0"/>
<stop offset="0.174311" stop-color="#A4A5A5"/>
<stop offset="0.402447" stop-color="#B5B5B5"/>
<stop offset="0.660365" stop-color="#D0D0D0"/>
<stop offset="0.938425" stop-color="#F5F5F5"/>
<stop offset="1" stop-color="white"/>
</linearGradient>
<linearGradient id="paint13_linear_7430_54232" x1="33.3737" y1="35.092" x2="26.6042" y2="31.955" gradientUnits="userSpaceOnUse">
<stop stop-color="#9FA0A0"/>
<stop offset="0.174311" stop-color="#A4A5A5"/>
<stop offset="0.402447" stop-color="#B5B5B5"/>
<stop offset="0.660365" stop-color="#D0D0D0"/>
<stop offset="0.938425" stop-color="#F5F5F5"/>
<stop offset="1" stop-color="white"/>
</linearGradient>
<linearGradient id="paint14_linear_7430_54232" x1="32.2834" y1="29.7011" x2="28.8964" y2="36.2824" gradientUnits="userSpaceOnUse">
<stop stop-color="#9FA0A0"/>
<stop offset="0.174311" stop-color="#A4A5A5"/>
<stop offset="0.402447" stop-color="#B5B5B5"/>
<stop offset="0.660365" stop-color="#D0D0D0"/>
<stop offset="0.938425" stop-color="#F5F5F5"/>
<stop offset="1" stop-color="white"/>
</linearGradient>
</defs>
</svg>
